<svg xmlns="http://www.w3.org/2000/svg" viewBox="0 0 336.44 55.06"><defs><style>.cls-1{fill:none;stroke:#fff;stroke-width:2px;}</style></defs><g id="Calque_2" data-name="Calque 2"><g id="Calque_1-2" data-name="Calque 1"><path class="cls-1" d="M1.79,53.34V44.2H41a7.89,7.89,0,0,0,5.65-1.87,6.53,6.53,0,0,0,2-5,6.31,6.31,0,0,0-2-5.08A8.49,8.49,0,0,0,41,30.59H17a19,19,0,0,1-6.66-1.11,14.54,14.54,0,0,1-5-3.1,13.61,13.61,0,0,1-3.16-4.72,15.52,15.52,0,0,1-1.12-6A16.28,16.28,0,0,1,2,9.82a12.51,12.51,0,0,1,3.1-4.64,14.52,14.52,0,0,1,5.08-3.06A19.72,19.72,0,0,1,17.13,1H54.71v9.14H17.13a6.71,6.71,0,0,0-4.9,1.7,6.29,6.29,0,0,0-1.73,4.71,6.08,6.08,0,0,0,1.77,4.68,6.68,6.68,0,0,0,4.79,1.66H41q8,0,12.13,3.74T57.3,38a18,18,0,0,1-1,6.12,13.28,13.28,0,0,1-3,4.86,13.75,13.75,0,0,1-5.07,3.2A20.27,20.27,0,0,1,41,53.34Z"/><path class="cls-1" d="M105.9,35.85,97.77,51.18a5.36,5.36,0,0,1-2,2.16,5.34,5.34,0,0,1-7.42-2.16L61.26,1H72.21L93.38,41.25,101.29,27,87.69,1h11l20.24,40.25L140.25,1h10.22L123.4,51.18a5.29,5.29,0,0,1-2.05,2.16,5.35,5.35,0,0,1-2.7.72,5.19,5.19,0,0,1-2.67-.72,5.34,5.34,0,0,1-2-2.16Z"/><path class="cls-1" d="M156.23,53.34V1h9.14V53.34Z"/><path class="cls-1" d="M191.37,53.34V10.14H171.49V1h48.89v9.14H200.51v43.2Z"/><path class="cls-1" d="M248.75,53.34a24.74,24.74,0,0,1-10.12-2.05,24.91,24.91,0,0,1-13.39-14.07,29,29,0,0,1-1.91-10.59,28,28,0,0,1,1.91-10.51A23.28,23.28,0,0,1,230.57,8a24,24,0,0,1,8.06-5.18A27.18,27.18,0,0,1,248.75,1h28.37v9.14H248.75a16.8,16.8,0,0,0-6.52,1.26,15.42,15.42,0,0,0-5.14,3.5,16,16,0,0,0-3.39,5.32,18.41,18.41,0,0,0-1.22,6.84,18.72,18.72,0,0,0,1.22,6.84,16.29,16.29,0,0,0,3.39,5.44,15.43,15.43,0,0,0,5.14,3.56,16.12,16.12,0,0,0,6.52,1.3h28.37v9.14Z"/><path class="cls-1" d="M284.17,53.56V1h9.15V53.56Zm42.12,0V30.81H299.94V22.67h26.35V1h9.15V53.56Z"/></g></g></svg>